<?xml version="1.0" encoding="UTF-8" standalone="no"?>
<!DOCTYPE svg PUBLIC "-//W3C//DTD SVG 1.1//EN" "http://www.w3.org/Graphics/SVG/1.1/DTD/svg11.dtd">
<svg version="1.1" xmlns="http://www.w3.org/2000/svg" xmlns:xlink="http://www.w3.org/1999/xlink" preserveAspectRatio="xMidYMid meet" viewBox="0 0 512 512" width="512" height="512"><defs><path d="M0 -1.5L512 -1.5L512 510.5L0 510.5L0 -1.5Z" id="a30Y1VlH5r"></path><path d="" id="a5v5LUeHEW"></path><path d="M229.25 232C187.5 173.04 150.33 143.21 117.75 142.5C102.87 145.94 84.75 197.13 84.75 251.75C84.75 306.38 105.87 358.56 117.75 361C146.33 368.29 183.5 340.46 229.25 277.5L307.75 277.5L307.75 335C310.83 343.33 317.83 347.5 328.75 347.5C339.67 347.5 345.83 343.33 347.25 335L347.25 277.5L391.75 277.5L391.75 353.5C393.83 362.17 400.17 366.5 410.75 366.5C421.33 366.5 426.83 362.17 427.25 353.5C427.25 298.13 427.25 263.52 427.25 249.68C427.25 239.91 419.34 232 409.57 232C385.53 232 325.42 232 229.25 232Z" id="d1aQg3uTWf"></path><path d="" id="b1P2sDSGJ"></path></defs><g><g><g><use xlink:href="#a30Y1VlH5r" opacity="1" fill="#5600eb" fill-opacity="1"></use><g><use xlink:href="#a30Y1VlH5r" opacity="1" fill-opacity="0" stroke="#5600eb" stroke-width="1" stroke-opacity="1"></use></g></g><g><g><use xlink:href="#a5v5LUeHEW" opacity="1" fill-opacity="0" stroke="#5600eb" stroke-width="1" stroke-opacity="1"></use></g></g><g><use xlink:href="#d1aQg3uTWf" opacity="1" fill="#ffffff" fill-opacity="1"></use><g><use xlink:href="#d1aQg3uTWf" opacity="1" fill-opacity="0" stroke="#ffffff" stroke-width="1" stroke-opacity="1"></use></g></g><g><g><use xlink:href="#b1P2sDSGJ" opacity="1" fill-opacity="0" stroke="#5600eb" stroke-width="1" stroke-opacity="1"></use></g></g></g></g></svg>